<?xml version="1.0" encoding="UTF-8" standalone="no"?>
<svg
   height="48px"
   viewBox="0 -960 960 960"
   width="48px"
   fill="#FFFFFF"
   version="1.1"
   id="svg1"
   sodipodi:docname="account-black.svg"
   inkscape:version="1.4.2 (ebf0e940d0, 2025-05-08)"
   xmlns:inkscape="http://www.inkscape.org/namespaces/inkscape"
   xmlns:sodipodi="http://sodipodi.sourceforge.net/DTD/sodipodi-0.dtd"
   xmlns="http://www.w3.org/2000/svg"
   xmlns:svg="http://www.w3.org/2000/svg">
  <defs
     id="defs1" />
  <sodipodi:namedview
     id="namedview1"
     pagecolor="#ffffff"
     bordercolor="#000000"
     borderopacity="0.25"
     inkscape:showpageshadow="2"
     inkscape:pageopacity="0.0"
     inkscape:pagecheckerboard="0"
     inkscape:deskcolor="#d1d1d1"
     inkscape:zoom="16.458333"
     inkscape:cx="24"
     inkscape:cy="10.086076"
     inkscape:window-width="1920"
     inkscape:window-height="1011"
     inkscape:window-x="0"
     inkscape:window-y="0"
     inkscape:window-maximized="1"
     inkscape:current-layer="svg1" />
  <path
     d="M222-255q63-44 125-67.5T480-346q71 0 133.5 23.5T739-255q44-54 62.5-109T820-480q0-145-97.5-242.5T480-820q-145 0-242.5 97.5T140-480q0 61 19 116t63 109Zm257.81-195q-57.81 0-97.31-39.69-39.5-39.68-39.5-97.5 0-57.81 39.69-97.31 39.68-39.5 97.5-39.5 57.81 0 97.31 39.69 39.5 39.68 39.5 97.5 0 57.81-39.69 97.31-39.68 39.5-97.5 39.5Zm.66 370Q398-80 325-111.5t-127.5-86q-54.5-54.5-86-127.27Q80-397.53 80-480.27 80-563 111.5-635.5q31.5-72.5 86-127t127.27-86q72.76-31.5 155.5-31.5 82.73 0 155.23 31.5 72.5 31.5 127 86t86 127.03q31.5 72.53 31.5 155T848.5-325q-31.5 73-86 127.5t-127.03 86Q562.94-80 480.47-80Zm-.47-60q55 0 107.5-16T691-212q-51-36-104-55t-107-19q-54 0-107 19t-104 55q51 40 103.5 56T480-140Zm0-370q34 0 55.5-21.5T557-587q0-34-21.5-55.5T480-664q-34 0-55.5 21.5T403-587q0 34 21.5 55.5T480-510Zm0-77Zm0 374Z"
     id="path1"
     style="fill:#000000;fill-opacity:1" />
</svg>
